
<svg width="63px" height="64px" viewBox="0 0 63 64" version="1.1" xmlns="http://www.w3.org/2000/svg" xmlns:xlink="http://www.w3.org/1999/xlink">
    <!-- Generator: Sketch 48.2 (47327) - http://www.bohemiancoding.com/sketch -->
    <desc>Created with Sketch.</desc>
    <defs>
        <linearGradient x1="50%" y1="0%" x2="50%" y2="100%" id="linearGradient-1">
            <stop stop-color="#494949" offset="0%"></stop>
            <stop stop-color="#303030" offset="100%"></stop>
        </linearGradient>
    </defs>
    <g id="Page-1" stroke="none" stroke-width="1" fill="none" fill-rule="evenodd">
        <g id="Group-Copy">
            <circle id="Oval-2" fill="#929292" cx="51.1469525" cy="12.4271179" r="11.6732942"></circle>
            <circle id="Oval-2-Copy" fill="#929292" cx="12.1469525" cy="51.4271179" r="11.6732942"></circle>
            <circle id="Oval" fill="url(#linearGradient-1)" cx="30.5" cy="30.5" r="29.5"></circle>
            <path d="M32.5017061,30.2462154 L44.9626436,30.2462154 L44.9626436,31.2423091 C44.9626436,33.5079454 44.6957192,35.5131337 44.1618624,37.2579341 C43.6410264,38.8725255 42.762129,40.3829271 41.5251436,41.7891841 C38.7256505,44.9402415 35.1644882,46.5157466 30.8415499,46.5157466 C26.6227788,46.5157466 23.0095337,44.9923243 20.0017061,41.9454341 C16.9938786,38.885523 15.4899874,35.2136847 15.4899874,30.9298091 C15.4899874,26.5547872 17.01992,22.8438868 20.0798311,19.7969966 C23.1397423,16.7370855 26.8636633,15.2071529 31.2517061,15.2071529 C33.6084887,15.2071529 35.8089876,15.6889189 37.8532686,16.6524654 C39.8064034,17.6160118 41.7269571,19.1784962 43.6149874,21.3399654 L40.3727999,24.4454341 C37.8988292,21.1511468 34.8845364,19.5040279 31.3298311,19.5040279 C28.139711,19.5040279 25.4639565,20.6042773 23.3024874,22.8048091 C21.1410182,24.9662783 20.0602999,27.6745845 20.0602999,30.9298091 C20.0602999,34.2892009 21.2647149,37.0561003 23.6735811,39.2305904 C25.9261966,41.2488296 28.3675784,42.2579341 30.9977999,42.2579341 C33.2373944,42.2579341 35.249093,41.5027333 37.0329561,39.9923091 C38.8168192,38.468864 39.812903,36.6459656 40.0212374,34.5235591 L32.5017061,34.5235591 L32.5017061,30.2462154 Z" id="G" fill="#FFFFFF"></path>
        </g>
    </g>
</svg>